<svg width="1024" height="1024" viewBox="0 0 1024 1024" xmlns="http://www.w3.org/2000/svg"><title>Yaroslavl Frontend</title><path fill="#F1DD3F" d="M811.925 0H212.083C94.95 0 .003 94.948.003 212.08c0 117.12 94.947 212.07 212.08 212.07h87.833L62.12 661.96c-82.826 82.818-82.826 217.102 0 299.92 82.818 82.82 217.095 82.82 299.92-.006 33.99-33.99 137.345-137.337 237.798-237.797v87.84c0 117.127 94.954 212.08 212.074 212.08 117.133 0 212.088-94.953 212.088-212.087V212.08C1024 94.95 929.045 0 811.925 0"/><path fill="#323330" d="M841.575 837.56c7.37 12.034 16.96 20.88 33.92 20.88 14.248 0 23.35-7.12 23.35-16.96 0-11.79-9.352-15.967-25.034-22.826l-8.596-3.69c-24.813-10.57-41.296-23.813-41.296-51.808 0-25.79 19.65-45.42 50.357-45.42 21.863 0 37.58 7.608 48.906 27.53l-26.775 17.193c-5.896-10.572-12.256-14.737-22.13-14.737-10.07 0-16.455 6.39-16.455 14.736 0 10.314 6.39 14.49 21.143 20.88l8.596 3.682c29.214 12.528 45.71 25.3 45.71 54.017 0 30.957-24.32 47.917-56.98 47.917-31.933 0-52.564-15.218-62.66-35.163l27.945-16.235zm-121.47 2.98c5.403 9.583 10.317 17.685 22.13 17.685 11.298 0 18.425-4.42 18.425-21.606V719.697h34.385v117.385c0 35.605-20.875 51.81-51.345 51.81-27.532 0-43.475-14.248-51.584-31.408l27.99-16.946z"/></svg>